<?xml version="1.0" standalone="no"?>
<!DOCTYPE svg PUBLIC "-//W3C//DTD SVG 20010904//EN"
 "http://www.w3.org/TR/2001/REC-SVG-20010904/DTD/svg10.dtd">
<svg version="1.0" xmlns="http://www.w3.org/2000/svg"
 width="800.000000pt" height="800.000000pt" viewBox="0 0 800.000000 800.000000"
 preserveAspectRatio="xMidYMid meet">
<metadata>
Created by potrace 1.14, written by Peter Selinger 2001-2017
</metadata>
<g transform="translate(0.000000,800.000000) scale(0.100000,-0.100000)"
fill="#000000" stroke="none">
<path d="M0 7150 l0 -850 25 -12 c18 -8 35 -8 60 -1 26 8 35 8 35 0 0 -8 3 -8
8 1 9 13 38 12 61 -2 10 -7 12 -3 6 14 -7 22 -7 22 13 2 11 -11 24 -21 28 -23
5 -2 20 -40 33 -84 14 -44 61 -157 107 -251 128 -265 137 -308 110 -476 -20
-125 -20 -222 2 -273 32 -76 83 -160 143 -240 124 -162 133 -184 150 -357 9
-95 9 -153 -1 -259 -10 -119 -10 -144 4 -198 21 -83 88 -219 181 -366 101
-161 122 -203 140 -277 31 -131 20 -150 -123 -234 -184 -108 -368 -228 -592
-389 -124 -88 -262 -185 -307 -214 l-83 -54 0 -1304 0 -1303 748 0 747 0 28
142 c29 145 75 268 119 315 19 21 20 29 14 140 -15 281 -6 1076 13 1088 15 9
140 -27 156 -45 16 -17 16 -29 6 -114 -7 -57 -11 -285 -11 -578 l0 -483 33
-18 c63 -34 136 -118 183 -207 52 -102 75 -126 171 -174 39 -21 77 -44 83 -52
11 -12 288 -14 2058 -14 l2045 0 -7 56 c-5 43 -3 55 6 51 7 -2 12 -11 10 -21
-2 -9 4 -16 12 -16 12 0 14 -5 6 -25 -7 -18 -6 -23 3 -19 7 2 17 19 23 37 8
30 7 34 -24 55 -18 12 -37 22 -41 22 -5 0 -10 55 -10 123 l-1 122 76 30 c118
46 112 29 134 391 11 170 22 332 25 359 2 28 7 217 11 420 3 204 7 371 9 373
2 2 15 -4 29 -13 32 -21 33 -26 46 -315 7 -129 15 -255 20 -280 9 -50 85 -465
95 -520 3 -19 12 -57 20 -85 7 -27 19 -83 26 -124 7 -41 15 -66 19 -57 14 41
70 -355 70 -501 l0 -63 525 0 525 0 0 2701 0 2701 -47 -6 c-108 -14 -461 -37
-648 -42 -110 -2 -208 -7 -217 -10 -22 -7 -24 3 -43 191 -8 83 -22 177 -30
210 -19 79 -19 198 1 265 27 91 82 218 114 265 17 25 49 57 71 71 63 39 91
134 52 176 -9 10 -22 33 -29 51 -6 18 -15 40 -19 51 -6 14 -4 17 5 14 8 -2 18
-18 24 -36 15 -43 34 -61 45 -43 6 9 18 11 35 7 27 -7 27 -26 0 -26 -8 0 -12
-5 -9 -10 4 -7 46 -8 118 -3 62 4 134 7 161 6 44 0 47 1 31 13 -17 13 -15 14
23 14 23 0 42 -4 42 -9 0 -12 72 -24 79 -13 3 5 52 12 109 15 91 5 102 3 100
-11 -2 -9 5 -18 15 -20 16 -3 17 37 17 737 l0 741 -1896 -2 -1896 -3 -19 -51
c-13 -35 -27 -54 -41 -57 -14 -4 -19 -11 -15 -21 4 -10 1 -16 -8 -16 -21 0
-19 16 6 41 11 11 18 26 16 32 -2 7 2 18 10 25 18 18 17 52 -3 52 -8 0 -13 -4
-10 -9 8 -12 -4 -41 -16 -41 -6 0 -7 11 -4 25 l6 25 -2065 0 -2065 0 0 -850z
m1746 691 c98 -47 327 -100 469 -107 89 -5 110 -3 185 20 47 15 126 35 177 46
113 25 175 18 318 -35 194 -72 252 -86 385 -92 144 -7 212 4 423 67 142 43
208 49 279 26 202 -66 302 -86 438 -86 108 0 142 4 245 31 147 38 271 59 350
59 63 0 111 -12 210 -53 164 -68 387 -75 588 -18 159 44 199 47 293 21 43 -12
119 -40 168 -62 84 -38 92 -40 165 -36 54 3 92 12 131 30 85 40 157 58 258 65
77 5 99 3 133 -13 l42 -18 -6 -101 c-4 -62 -19 -157 -41 -250 -62 -258 -60
-314 17 -545 39 -117 42 -132 41 -235 0 -110 -1 -110 -74 -325 -62 -184 -73
-227 -77 -300 -5 -84 -3 -92 51 -335 30 -132 15 -262 -60 -510 -61 -204 -80
-350 -60 -465 3 -19 9 -53 12 -75 2 -22 9 -68 14 -103 18 -131 -10 -347 -69
-529 -56 -172 -67 -457 -22 -570 14 -35 24 -95 31 -180 5 -70 15 -129 20 -131
13 -5 13 -59 1 -67 -6 -3 -21 -30 -36 -60 -30 -65 -51 -191 -64 -400 -9 -142
-33 -292 -49 -307 -4 -3 -106 -8 -227 -10 l-220 -5 -135 -42 c-183 -58 -245
-61 -470 -26 -219 34 -331 31 -490 -14 -58 -16 -126 -32 -151 -36 -45 -6 -234
13 -348 35 -30 5 -111 13 -181 16 -123 7 -128 6 -171 -19 -104 -61 -403 -81
-624 -43 -55 10 -163 20 -240 23 -117 5 -158 2 -250 -15 -183 -35 -234 -42
-377 -48 l-137 -7 -9 24 c-5 13 -12 105 -15 204 -7 242 -21 288 -146 494 -28
46 -60 109 -72 140 -29 74 -36 199 -18 310 8 47 14 131 13 186 0 128 -18 184
-135 420 -112 226 -122 275 -95 467 10 68 22 131 28 141 9 18 3 254 -9 307 -7
33 -59 172 -88 235 -13 28 -34 75 -48 105 -14 30 -39 84 -55 120 -57 123 -64
233 -27 431 27 143 27 166 -9 349 -21 112 -49 188 -134 365 l-77 160 1 130 c0
83 7 162 18 220 24 116 24 270 2 350 -25 89 -45 132 -98 212 -112 168 -122
257 -39 376 29 43 90 107 101 107 3 0 24 -9 46 -19z m-307 -253 c-1 -13 0 -30
3 -38 3 -8 15 -49 28 -90 12 -41 44 -117 71 -167 27 -51 54 -116 59 -144 6
-33 6 -126 0 -267 -10 -212 -13 -244 -25 -309 -10 -54 33 -198 95 -318 75
-144 108 -230 126 -322 19 -100 18 -173 -6 -331 -24 -157 -25 -286 -5 -361 8
-30 43 -113 79 -185 103 -207 147 -341 162 -491 5 -55 -1 -125 -27 -290 -19
-123 -22 -195 -10 -255 15 -75 89 -255 138 -335 95 -154 108 -223 85 -453 -17
-177 -11 -295 22 -393 27 -84 79 -186 105 -209 37 -33 78 -123 106 -233 19
-77 20 -93 9 -125 -7 -22 -9 -41 -4 -48 10 -11 2 -54 -10 -54 -5 0 -10 8 -13
18 -2 9 -4 -21 -3 -68 l1 -85 -65 -3 c-36 -2 -78 -1 -95 2 l-30 6 3 178 c5
278 -33 535 -94 634 -34 56 -91 115 -129 136 -71 37 -210 13 -276 -49 -51 -47
-161 -212 -218 -326 -32 -64 -60 -112 -63 -107 -3 5 -11 27 -18 49 -19 59 -51
126 -77 161 -13 17 -23 36 -23 42 0 7 -9 17 -20 24 -11 7 -20 18 -20 25 0 7
-4 13 -10 13 -5 0 -10 4 -10 9 0 5 -16 37 -35 70 -56 101 -60 151 -34 436 12
135 3 219 -33 288 -11 22 -59 99 -106 171 -47 72 -104 166 -126 210 l-41 78 3
275 c3 192 0 290 -9 326 -18 78 -72 179 -166 309 -46 65 -94 139 -106 165 -24
52 -25 79 -16 393 4 163 4 166 -23 223 -15 32 -50 96 -78 143 -115 190 -148
299 -121 410 20 84 62 137 169 216 165 121 168 125 213 278 72 251 115 312
276 395 120 63 374 311 359 352 -4 9 1 21 11 29 24 18 25 18 22 -8z m5758
-220 c-3 -8 -6 -5 -6 6 -1 11 2 17 5 13 3 -3 4 -12 1 -19z m18 -839 c12 -19
-5 -23 -22 -6 -16 16 -16 17 -1 17 9 0 20 -5 23 -11z m-7128 -141 c-3 -8 -6
-5 -6 6 -1 11 2 17 5 13 3 -3 4 -12 1 -19z m153 -78 c0 -5 -4 -10 -10 -10 -5
0 -10 5 -10 10 0 6 5 10 10 10 6 0 10 -4 10 -10z m1765 -3446 c43 -20 58 -59
79 -194 38 -247 45 -481 21 -674 -16 -131 -35 -174 -88 -199 -146 -68 -337
-40 -504 75 -78 53 -88 106 -53 279 52 253 228 611 338 686 65 44 149 55 207
27z m4871 -176 l39 -73 3 -176 c5 -219 -4 -272 -56 -322 -36 -36 -96 -67 -127
-67 -9 0 -13 5 -10 10 4 6 -10 10 -34 10 -49 0 -53 16 -13 52 47 44 93 102
109 137 15 35 32 249 33 409 0 50 4 92 9 92 5 0 26 -33 47 -72z m192 -47 c-15
-5 -21 7 -13 26 7 17 8 17 15 -2 4 -11 3 -22 -2 -24z m12 -27 c0 -8 -4 -12
-10 -9 -5 3 -10 10 -10 16 0 5 5 9 10 9 6 0 10 -7 10 -16z m-13 -146 c-3 -8
-6 -5 -6 6 -1 11 2 17 5 13 3 -3 4 -12 1 -19z m895 -63 c0 -5 -5 -11 -10 -13
-5 -1 -9 4 -9 13 0 9 4 14 9 13 5 -2 10 -8 10 -13z m-6660 -299 c25 -1 50 -4
54 -8 4 -5 1 -8 -7 -8 -10 -1 -9 -3 4 -11 22 -13 22 -29 0 -29 -32 0 -183 51
-183 62 0 7 14 8 43 3 23 -5 63 -9 89 -9z m5217 -72 c2 -2 -1 -104 -7 -226 -7
-123 -12 -256 -12 -295 0 -67 -2 -73 -22 -77 -22 -5 -355 -16 -1053 -36 -268
-8 -342 -7 -351 3 -17 20 -48 238 -41 297 6 52 82 210 104 217 6 2 34 -27 64
-64 29 -37 94 -110 144 -160 115 -118 125 -119 237 -35 67 50 110 87 262 225
70 63 276 143 405 156 69 7 260 3 270 -5z m-990 -69 c112 -9 210 -19 217 -23
10 -5 -29 -47 -128 -136 l-141 -129 -46 49 c-121 131 -221 243 -221 248 0 10
105 7 319 -9z m-1089 -2 c0 -4 -39 -48 -88 -97 -48 -50 -117 -124 -154 -163
-37 -40 -72 -73 -77 -73 -17 0 -232 233 -223 242 5 5 47 13 93 18 46 4 134 18
194 31 122 24 236 47 248 48 4 1 7 -2 7 -6z m198 -46 c2 -19 -1 -27 -12 -27
-9 0 -16 3 -16 8 0 4 -3 18 -7 31 -5 19 -2 22 13 19 12 -2 20 -13 22 -31z
m-1053 -11 c44 -8 97 -18 117 -21 30 -5 49 -18 94 -70 86 -97 306 -285 334
-285 23 0 88 60 206 191 123 136 205 209 233 209 20 -1 68 -101 83 -174 13
-68 -6 -172 -54 -283 l-33 -78 -50 -6 c-69 -9 -848 -28 -1391 -33 l-451 -4 -6
96 c-4 53 -7 172 -7 265 l0 167 23 0 c23 0 285 25 427 40 109 12 382 4 475
-14z m-1025 -42 c3 -3 7 -125 9 -270 l3 -265 -38 6 c-69 10 -346 46 -469 61
-66 8 -126 17 -134 20 -11 4 -13 23 -7 104 7 107 18 150 39 150 8 0 42 14 76
31 53 27 70 42 114 106 l52 76 175 -7 c96 -4 177 -9 180 -12z m-954 -244 c-2
-39 -6 -73 -9 -76 -3 -4 -18 3 -32 14 -19 15 -23 23 -13 29 14 9 33 44 43 81
11 38 14 24 11 -48z m4868 -375 c3 -10 0 -23 -7 -27 -7 -4 -118 -8 -247 -9
-240 0 -428 -4 -837 -15 -164 -5 -233 -4 -233 4 0 22 29 39 72 41 23 1 59 4
78 7 72 11 477 21 817 20 341 -1 352 -2 357 -21z m-1996 -70 c-25 -21 -34 -22
-195 -24 -92 0 -283 -6 -423 -12 -149 -6 -430 -8 -675 -5 -522 7 -495 6 -495
17 0 5 3 9 8 10 91 9 109 12 142 28 19 9 92 10 305 3 154 -4 397 -7 540 -6
143 1 380 2 527 3 167 1 270 6 274 12 3 6 9 7 13 4 3 -4 -6 -17 -21 -30z
m2732 1 c0 -3 -4 -8 -10 -11 -5 -3 -10 -1 -10 4 0 6 5 11 10 11 6 0 10 -2 10
-4z m-100 -16 c0 -5 -10 -10 -22 -10 -19 0 -20 2 -8 10 19 13 30 13 30 0z m47
4 c-3 -3 -12 -4 -19 -1 -8 3 -5 6 6 6 11 1 17 -2 13 -5z"/>
<path d="M2517 7420 c-137 -57 -263 -182 -343 -342 -21 -41 -29 -68 -22 -68 9
0 9 -3 0 -12 -15 -15 -16 -32 -2 -23 6 3 10 1 10 -4 0 -6 -4 -11 -9 -11 -17 0
-21 -31 -6 -46 16 -17 35 -11 35 11 0 7 6 20 13 27 6 8 17 23 24 33 6 11 16
19 23 17 7 -2 9 5 5 18 -3 11 -2 20 2 20 8 0 27 37 48 95 l7 20 8 -20 c7 -17
9 -17 9 -2 1 9 5 17 11 17 5 0 23 21 40 48 35 52 71 83 100 85 13 1 20 9 21
22 1 17 2 16 9 -5 8 -24 8 -24 9 -2 1 12 6 22 11 22 6 0 10 10 11 23 1 21 1
21 9 -3 l7 -25 8 27 c5 22 15 29 44 34 63 10 68 18 14 22 -38 2 -53 7 -53 17
0 11 11 14 40 12 22 -1 40 -6 40 -10 0 -5 10 -5 21 -2 19 6 21 4 17 -19 -3
-14 -1 -26 3 -26 5 0 9 4 9 9 0 5 10 11 23 14 20 5 20 5 5 -7 -26 -19 -22 -25
16 -23 52 4 53 13 4 43 -58 37 -151 43 -221 14z"/>
<path d="M4265 7371 c-74 -35 -172 -134 -341 -345 l-39 -49 30 7 c55 13 136
70 214 149 105 108 170 151 210 142 41 -9 87 -48 95 -81 5 -18 -2 -44 -24 -88
-26 -54 -77 -217 -83 -266 -5 -38 47 -3 90 60 78 116 112 239 91 336 -15 71
-112 164 -170 164 -7 0 -40 -13 -73 -29z"/>
<path d="M5354 7361 c-83 -51 -123 -182 -89 -297 28 -98 82 -184 116 -184 24
0 29 24 21 101 -6 53 -14 73 -40 105 -35 43 -40 70 -17 114 17 33 74 80 97 80
9 0 37 -24 64 -52 92 -99 143 -145 209 -188 53 -35 68 -40 80 -30 19 16 10 34
-70 130 -79 95 -190 202 -232 223 -42 22 -101 21 -139 -2z"/>
<path d="M6475 7261 c-46 -27 -73 -85 -84 -180 -5 -45 -7 -90 -6 -99 2 -9 6
-29 9 -43 3 -15 17 -34 32 -43 25 -17 25 -17 14 4 -7 13 -8 20 -3 17 5 -3 15
-1 23 4 13 8 12 11 -3 20 -14 8 -15 14 -6 31 6 11 9 29 6 39 -7 28 24 132 44
146 9 7 22 26 29 43 7 16 16 30 20 30 14 0 5 35 -10 42 -22 10 -32 8 -65 -11z
m55 -1 c0 -5 -2 -10 -4 -10 -3 0 -8 5 -11 10 -3 6 -1 10 4 10 6 0 11 -4 11
-10z"/>
<path d="M2732 7148 c-7 -7 -12 -20 -12 -30 0 -16 3 -17 23 -7 29 16 28 14 21
33 -7 19 -16 20 -32 4z"/>
<path d="M2757 7093 c4 -10 2 -14 -5 -9 -6 3 -16 -2 -22 -11 -10 -16 -11 -16
-6 -1 3 12 1 15 -10 11 -14 -5 -16 -10 -18 -52 -1 -31 -26 -40 -33 -12 -3 12
-9 21 -14 21 -15 0 -10 -39 9 -67 9 -15 11 -24 5 -20 -7 5 -13 4 -13 -1 0 -6
-10 -8 -22 -4 -17 4 -20 2 -15 -11 4 -10 2 -17 -3 -17 -6 0 -10 -7 -10 -15 0
-8 -9 -15 -20 -15 -13 0 -18 -5 -14 -15 4 -8 10 -12 15 -9 5 3 9 3 9 -1 0 -6
-52 -29 -62 -27 -4 1 -5 -4 -2 -11 2 -7 -7 -19 -21 -27 -14 -7 -28 -24 -31
-37 -4 -13 -10 -23 -16 -23 -5 0 -8 -8 -6 -17 2 -9 -6 -22 -17 -27 -38 -20
-45 -27 -40 -37 13 -20 157 88 152 114 -1 6 3 11 8 12 20 1 35 17 29 28 -4 7
-3 9 1 4 12 -10 55 33 55 55 0 11 4 17 9 13 12 -7 48 44 53 75 2 14 9 24 16
22 8 -1 11 2 8 7 -3 5 1 11 9 15 8 3 15 10 15 16 0 6 -4 8 -10 5 -5 -3 -10 1
-10 9 0 9 7 13 19 11 24 -4 35 20 21 46 -13 23 -22 25 -13 2z"/>
<path d="M4151 6945 c-216 -252 -465 -454 -781 -632 -121 -68 -133 -74 -375
-183 -189 -85 -255 -122 -255 -143 0 -7 6 -22 14 -32 13 -18 15 -18 75 -1 93
26 96 19 38 -109 -29 -65 -31 -77 -29 -170 6 -271 56 -424 222 -679 33 -51 60
-95 60 -97 0 -2 -91 -5 -203 -6 -202 -1 -257 -8 -265 -32 -4 -11 39 -13 221
-10 231 4 283 -1 129 -12 -81 -5 -78 -6 53 -8 78 -1 164 -8 195 -15 79 -20
313 -99 433 -147 180 -72 251 -114 322 -192 36 -39 67 -68 70 -65 8 8 -33 104
-51 119 -30 25 -11 37 119 73 199 57 331 135 509 304 l77 74 88 -89 c48 -48
109 -102 135 -118 26 -17 50 -36 53 -44 3 -8 -6 -31 -21 -52 -36 -52 -27 -69
35 -69 74 0 182 25 311 72 122 44 423 192 604 297 229 133 340 169 427 141 88
-29 115 -86 84 -179 -9 -28 -22 -54 -29 -58 -7 -5 -20 -21 -28 -36 -78 -151
-465 -354 -791 -414 -71 -13 -150 -17 -349 -17 l-258 0 0 -58 0 -58 158 0
c402 0 603 40 892 177 166 78 249 133 329 219 103 110 161 228 161 325 0 40
-7 58 -45 113 -25 37 -45 69 -45 73 0 3 21 49 46 101 l46 95 9 151 c11 170 -1
299 -33 381 -13 34 -18 62 -14 87 5 32 2 39 -27 65 -18 15 -59 44 -91 63 -209
127 -490 376 -671 595 -46 55 -108 125 -139 155 l-56 54 0 -41 c0 -66 25 -118
95 -198 36 -41 65 -77 65 -80 0 -3 -69 -3 -152 1 -181 7 -252 -4 -387 -64
-152 -67 -281 -168 -375 -293 l-45 -59 -78 86 c-43 47 -113 112 -157 145 -93
71 -249 149 -361 180 -44 12 -87 24 -95 26 -10 3 1 17 33 44 50 43 123 140
150 199 19 43 41 129 35 136 -3 3 -42 -38 -87 -91z m-111 -400 c241 -75 361
-140 501 -272 55 -52 139 -164 139 -184 0 -2 -35 -4 -78 -4 -67 0 -86 -4 -144
-33 -83 -41 -162 -111 -193 -171 -86 -170 -66 -340 54 -460 79 -78 152 -113
250 -119 70 -4 204 14 256 34 14 5 7 -7 -21 -39 -23 -26 -65 -88 -94 -137
-114 -198 -219 -311 -364 -392 -90 -50 -150 -71 -289 -102 -141 -32 -128 -35
-422 79 -104 40 -229 85 -277 100 -49 14 -102 38 -118 52 -39 33 -106 135
-174 265 -116 224 -134 309 -116 528 12 150 29 237 53 274 9 13 67 51 129 84
317 167 445 248 662 422 76 61 143 109 150 106 6 -3 49 -17 96 -31z m1663 -35
c73 -23 180 -97 352 -246 93 -80 111 -104 77 -104 -27 0 -150 -63 -195 -101
-95 -79 -130 -256 -81 -411 9 -27 20 -48 25 -48 5 0 9 -6 9 -14 0 -23 75 -91
137 -123 70 -37 177 -56 245 -43 26 5 74 23 107 40 81 40 91 40 84 -7 -3 -21
-10 -46 -14 -55 -5 -9 -9 -26 -9 -36 0 -11 -13 -31 -28 -44 -29 -24 -49 -33
-192 -88 -89 -34 -194 -87 -346 -176 -106 -62 -131 -74 -119 -54 5 9 4 11 -4
6 -6 -4 -8 -12 -5 -18 5 -7 1 -9 -9 -5 -10 4 -16 2 -14 -5 1 -6 -4 -13 -10
-15 -7 -3 -13 0 -13 5 0 5 -34 -8 -75 -30 -41 -21 -84 -41 -96 -43 -12 -2 -26
-8 -33 -13 -32 -26 -209 -95 -273 -108 -68 -13 -77 -12 -124 6 -87 32 -234
155 -292 243 l-26 38 30 72 c16 39 42 110 57 157 26 81 27 94 27 290 -1 235
-15 311 -86 453 -21 43 -39 86 -39 95 0 40 186 235 288 303 135 89 222 110
437 104 107 -3 156 -8 208 -25z m605 -462 c37 -21 95 -71 130 -113 7 -9 12
-22 10 -30 -3 -15 -11 -11 -147 72 -52 32 -90 29 -142 -11 -53 -40 -86 -80
-105 -124 -16 -36 -13 -63 10 -107 9 -16 16 -35 16 -40 0 -16 47 -63 70 -70
11 -3 20 -11 20 -17 0 -6 9 -8 20 -5 11 3 18 2 15 -3 -12 -20 48 -14 102 10
61 28 129 94 139 137 4 14 13 21 25 20 63 -5 -74 -193 -175 -241 -74 -35 -170
-7 -253 74 -59 58 -77 110 -71 209 3 44 10 86 16 94 7 8 10 16 7 18 -11 11 52
67 118 106 86 49 133 54 195 21z m-1607 -102 c13 -9 20 -16 15 -16 -5 0 -1 -9
8 -19 17 -19 16 -20 -31 -26 -93 -13 -161 -37 -192 -67 -30 -30 -31 -31 -28
-121 1 -61 6 -92 15 -95 7 -2 10 -7 7 -11 -2 -5 9 -21 25 -36 27 -26 37 -29
102 -29 40 -1 106 3 146 8 l72 9 0 -29 c0 -72 -197 -128 -323 -93 -49 13 -115
73 -138 124 -28 60 -27 253 1 309 21 44 65 79 127 102 49 19 162 13 194 -10z
m50 -823 c-12 -20 -14 -14 -5 12 4 9 9 14 11 11 3 -2 0 -13 -6 -23z m939 -168
c0 -2 -10 -9 -22 -15 -22 -11 -22 -10 -4 4 21 17 26 19 26 11z m-70 -40 c0 -2
-10 -9 -22 -15 -22 -11 -22 -10 -4 4 21 17 26 19 26 11z m-51 -29 c-2 -2 -15
-9 -29 -15 -24 -11 -24 -11 -6 3 16 13 49 24 35 12z m-2432 -22 c-3 -3 -12 -4
-19 -1 -8 3 -5 6 6 6 11 1 17 -2 13 -5z"/>
<path d="M2130 6891 c0 -5 7 -12 16 -15 14 -5 15 -4 4 9 -14 17 -20 19 -20 6z"/>
<path d="M2110 6840 c0 -13 5 -18 15 -14 8 4 15 12 15 20 0 8 -7 14 -15 14 -8
0 -15 -9 -15 -20z"/>
<path d="M2412 6717 c-8 -10 -6 -13 8 -14 11 -1 22 2 25 8 4 5 -2 6 -11 2 -12
-4 -15 -3 -10 5 10 16 1 15 -12 -1z"/>
<path d="M2182 6708 c-8 -8 -9 -15 -1 -25 14 -16 -3 -17 -19 -1 -7 7 -12 8
-12 2 0 -16 40 -35 62 -28 14 4 18 2 14 -5 -5 -7 2 -11 19 -11 32 0 29 23 -4
28 -15 2 -21 9 -17 18 3 9 -1 14 -12 15 -14 0 -14 2 3 9 20 9 20 9 0 9 -12 1
-26 -4 -33 -11z"/>
<path d="M2338 6643 c6 -2 18 -2 25 0 6 3 1 5 -13 5 -14 0 -19 -2 -12 -5z"/>
<path d="M2394 6385 c-39 -20 -96 -79 -123 -128 -27 -49 -26 -54 3 -20 l25 28
-3 -27 c-2 -15 1 -25 5 -22 5 3 9 14 9 26 0 11 8 22 20 25 11 3 20 13 20 22 0
9 4 22 9 29 7 11 11 11 24 -2 14 -15 16 -14 22 4 3 11 17 23 31 26 13 3 21 10
18 15 -10 17 33 9 56 -11 27 -23 31 -25 24 -7 -8 19 -50 47 -81 52 -15 3 -42
-2 -59 -10z"/>
<path d="M2320 6050 c0 -5 5 -10 11 -10 5 0 7 5 4 10 -3 6 -8 10 -11 10 -2 0
-4 -4 -4 -10z"/>
<path d="M2281 6014 c0 -11 3 -14 6 -6 3 7 2 16 -1 19 -3 4 -6 -2 -5 -13z"/>
<path d="M3180 4596 c0 -20 8 -27 50 -41 57 -19 95 -17 95 5 0 19 -80 60 -117
60 -23 0 -28 -4 -28 -24z"/>
<path d="M2862 4513 c-31 -27 -14 -59 37 -68 50 -8 61 -2 61 36 0 22 -6 32
-26 39 -36 14 -49 13 -72 -7z"/>
<path d="M3296 4331 c-4 -7 -5 -15 -2 -18 9 -9 19 4 14 18 -4 11 -6 11 -12 0z"/>
<path d="M3356 4317 c-27 -54 -44 -72 -66 -69 -14 2 -20 0 -15 -7 3 -6 11 -9
16 -6 5 4 9 1 9 -4 0 -19 56 -12 91 12 19 12 34 31 34 41 0 22 -60 51 -69 33z
m43 -20 c8 -10 6 -19 -10 -35 -34 -37 -58 -23 -38 22 13 29 31 33 48 13z"/>
<path d="M4945 4093 c-88 -8 -375 -55 -450 -74 -109 -27 -213 -69 -385 -154
-405 -202 -564 -389 -548 -641 6 -86 33 -136 100 -184 81 -59 192 -67 348 -25
52 14 132 34 177 45 45 11 128 37 185 59 120 45 256 83 383 107 72 13 162 17
445 19 410 2 446 7 526 78 61 53 84 102 84 174 -1 100 -55 207 -154 303 -123
120 -263 200 -436 251 -70 21 -209 50 -225 47 -5 -1 -28 -3 -50 -5z m189 -133
c114 -23 238 -63 284 -92 l34 -21 -4 -133 c-2 -109 -6 -136 -20 -150 -17 -18
-28 -19 -350 -38 l-98 -5 0 223 c0 122 3 226 7 229 11 11 45 8 147 -13z m-479
-72 c3 -35 5 -139 3 -233 l-3 -170 -259 -8 c-179 -5 -262 -5 -270 3 -6 6 -12
67 -14 138 l-4 128 88 50 c129 72 197 99 339 134 115 29 112 30 120 -42z"/>
<path d="M2768 3788 c-25 -23 -39 -54 -72 -154 -16 -49 -14 -110 4 -99 5 3 11
1 15 -5 3 -6 -3 -10 -16 -10 -17 0 -19 -3 -10 -13 7 -10 7 -17 0 -24 -13 -13
-2 -36 13 -27 6 4 8 -1 4 -14 -4 -11 -2 -23 4 -27 6 -3 8 -10 5 -14 -2 -5 7
-18 20 -31 22 -21 27 -22 56 -10 90 38 159 158 175 306 9 80 -3 100 -69 118
-101 29 -103 29 -129 4z m96 -126 c-4 -9 -8 -28 -9 -42 -3 -35 -20 -73 -39
-89 -9 -7 -16 -21 -16 -31 0 -13 -6 -16 -25 -12 -17 3 -25 10 -23 21 1 9 -1
22 -6 30 -5 8 -4 16 5 21 9 6 10 12 2 22 -7 9 -8 21 0 38 l10 25 7 -25 c5 -16
8 -19 9 -8 1 10 10 22 21 28 11 6 20 16 20 23 0 7 12 14 26 15 21 2 25 -1 18
-16z m-144 -72 c-13 -32 -30 -40 -30 -14 0 8 4 12 10 9 5 -3 12 6 16 20 3 14
9 24 12 21 2 -3 -1 -19 -8 -36z"/>
<path d="M6345 3770 c-3 -6 1 -7 9 -4 9 3 16 1 16 -5 0 -6 8 -11 18 -11 15 1
15 2 -2 15 -23 18 -33 19 -41 5z"/>
<path d="M6177 3743 c-4 -3 -7 -14 -7 -24 0 -11 -5 -16 -13 -13 -8 3 -14 -6
-15 -26 -1 -17 -3 -37 -5 -43 -1 -7 4 -11 11 -9 6 1 12 -2 12 -8 0 -5 -6 -10
-14 -10 -9 0 -12 -7 -9 -18 2 -10 -3 -31 -11 -47 -15 -29 -21 -65 -11 -65 13
0 43 35 38 43 -3 6 1 15 9 21 8 6 29 41 47 79 32 65 34 67 71 67 21 0 40 5 42
11 2 7 17 8 41 4 27 -5 37 -12 37 -26 0 -20 15 -26 25 -9 4 6 10 8 15 5 5 -3
7 4 5 16 -6 28 -11 33 -26 23 -9 -5 -7 -10 7 -15 16 -6 16 -8 2 -8 -9 -1 -21
5 -25 12 -15 23 -60 39 -115 40 -46 2 -54 -1 -50 -13 4 -12 1 -11 -15 3 -21
18 -35 21 -46 10z m28 -13 c-3 -5 -11 -10 -16 -10 -6 0 -7 5 -4 10 3 6 11 10
16 10 6 0 7 -4 4 -10z m-35 -44 c0 -3 -4 -8 -10 -11 -5 -3 -10 -1 -10 4 0 6 5
11 10 11 6 0 10 -2 10 -4z m16 -83 c-10 -10 -19 5 -10 18 6 11 8 11 12 0 2 -7
1 -15 -2 -18z"/>
<path d="M6400 3460 c0 -5 5 -10 10 -10 6 0 10 5 10 10 0 6 -4 10 -10 10 -5 0
-10 -4 -10 -10z"/>
<path d="M6360 3429 c0 -5 5 -7 10 -4 6 3 10 8 10 11 0 2 -4 4 -10 4 -5 0 -10
-5 -10 -11z"/>
<path d="M6346 3373 c-6 -14 -5 -15 5 -6 7 7 10 15 7 18 -3 3 -9 -2 -12 -12z"/>
<path d="M6300 3319 c0 -5 5 -7 10 -4 6 3 10 8 10 11 0 2 -4 4 -10 4 -5 0 -10
-5 -10 -11z"/>
<path d="M6276 3301 c-4 -7 -5 -15 -2 -18 9 -9 19 4 14 18 -4 11 -6 11 -12 0z"/>
<path d="M6416 3178 c4 -17 2 -28 -5 -28 -6 0 -11 -6 -11 -14 0 -8 -10 -22
-22 -30 -20 -14 -24 -14 -40 1 -16 14 -18 15 -13 1 3 -8 -1 -22 -9 -31 -13
-13 -14 -16 -1 -21 8 -3 12 -12 9 -21 -5 -12 -10 -13 -20 -4 -10 8 -13 6 -11
-10 2 -27 12 -27 32 2 8 12 18 21 20 20 13 -7 16 -2 6 11 -9 10 -8 16 3 25 11
10 15 8 18 -6 3 -13 12 -2 32 36 22 43 26 58 17 75 -9 19 -10 18 -5 -6z m-79
-107 c0 -11 -5 -18 -9 -15 -4 3 -5 11 -1 19 7 21 12 19 10 -4z"/>
<path d="M6355 3130 c-3 -5 3 -10 15 -10 12 0 18 5 15 10 -3 6 -10 10 -15 10
-5 0 -12 -4 -15 -10z"/>
<path d="M6109 3026 c15 -15 24 -17 32 -9 8 8 6 11 -7 10 -11 -1 -18 3 -17 9
1 6 -5 11 -13 11 -12 0 -10 -5 5 -21z"/>
<path d="M2884 3015 c-62 -49 -129 -238 -138 -392 -4 -57 -5 -103 -2 -103 2 0
16 26 32 58 16 31 32 59 36 62 4 3 14 30 22 60 26 93 28 100 37 100 5 0 9 7 9
15 0 20 20 55 47 81 12 12 19 25 16 28 -4 3 -1 6 5 6 7 0 12 7 12 15 0 11 12
15 45 15 39 0 51 -5 80 -35 19 -19 35 -39 35 -45 0 -5 5 -10 10 -10 6 0 10 -7
10 -16 0 -8 5 -12 11 -8 16 9 3 81 -23 122 -32 53 -72 72 -148 72 -54 0 -70
-4 -96 -25z m163 -24 c11 -17 9 -18 -28 -9 -42 11 -45 22 -7 25 14 2 28 -5 35
-16z m-97 -1 c0 -5 -2 -10 -4 -10 -3 0 -8 5 -11 10 -3 6 -1 10 4 10 6 0 11 -4
11 -10z m140 -20 c0 -5 -5 -10 -11 -10 -5 0 -7 5 -4 10 3 6 8 10 11 10 2 0 4
-4 4 -10z"/>
<path d="M6160 3030 c0 -5 4 -10 9 -10 6 0 13 5 16 10 3 6 -1 10 -9 10 -9 0
-16 -4 -16 -10z"/>
<path d="M5338 2968 c-24 -28 -56 -64 -73 -80 l-29 -28 -244 0 -243 0 -119
-55 c-147 -67 -223 -83 -309 -66 -34 7 -78 21 -97 33 -19 11 -37 18 -40 16 -2
-3 3 -22 11 -42 24 -57 63 -69 205 -64 l115 4 105 52 c150 74 184 80 369 57
84 -10 176 -15 206 -12 52 5 57 8 157 106 63 62 99 104 93 110 -6 4 -22 11
-37 15 -23 5 -32 -1 -70 -46z"/>
<path d="M6165 3000 c-3 -5 -1 -10 4 -10 20 0 26 -2 36 -10 6 -4 18 -5 27 -1
16 6 16 7 -3 19 -12 8 -18 9 -14 3 8 -14 -1 -14 -25 -1 -13 7 -21 7 -25 0z"/>
<path d="M6106 2785 c4 -8 15 -15 25 -15 23 0 25 -28 4 -36 -10 -4 -13 -13
-10 -25 9 -27 -21 -55 -41 -39 -8 7 -17 10 -21 6 -3 -3 -1 -6 5 -6 7 0 12 -7
12 -16 0 -8 -4 -13 -9 -9 -5 3 -12 1 -16 -5 -3 -5 0 -10 8 -10 10 0 14 -9 13
-30 -3 -40 9 -38 20 2 14 48 37 46 56 -4 9 -24 17 -35 17 -25 1 20 17 23 25 5
3 -7 2 6 -1 30 -6 43 2 52 26 30 11 -11 13 -10 8 5 -4 9 -2 17 3 17 6 0 10 10
10 21 0 18 -2 19 -15 9 -22 -18 -31 -4 -12 18 15 17 15 20 0 41 -26 38 -119
69 -107 36z m54 -136 c16 -30 8 -31 -13 -3 -10 13 -13 24 -8 24 6 0 15 -9 21
-21z m30 17 c0 -3 -4 -8 -10 -11 -5 -3 -10 -1 -10 4 0 6 5 11 10 11 6 0 10 -2
10 -4z"/>
<path d="M3041 2624 c0 -11 3 -14 6 -6 3 7 2 16 -1 19 -3 4 -6 -2 -5 -13z"/>
<path d="M2991 2571 c-9 -16 -10 -26 -2 -34 13 -13 25 12 19 40 -3 16 -5 15
-17 -6z"/>
<path d="M6065 2550 c-3 -5 0 -10 7 -10 9 0 9 -3 -2 -10 -13 -9 -13 -11 0 -20
10 -6 11 -10 3 -10 -7 0 -13 -5 -13 -11 0 -5 5 -7 10 -4 11 6 12 0 14 -51 1
-17 -3 -31 -9 -29 -5 1 -7 0 -2 -2 14 -9 7 -25 -9 -19 -8 3 -12 2 -9 -4 3 -6
15 -10 26 -10 13 0 18 4 13 12 -5 8 -2 9 9 5 9 -3 16 -3 15 1 -6 22 40 124 53
117 15 -10 10 8 -9 32 l-17 22 -16 -35 c-11 -22 -13 -34 -5 -34 11 0 -13 -20
-25 -20 -12 0 -17 54 -8 72 7 14 6 18 -5 18 -8 0 -18 -4 -21 -10z"/>
<path d="M6181 2544 c0 -11 3 -14 6 -6 3 7 2 16 -1 19 -3 4 -6 -2 -5 -13z"/>
<path d="M2956 2503 c-4 -9 -2 -21 4 -27 7 -7 10 -2 10 17 0 31 -5 34 -14 10z"/>
<path d="M3051 2494 c0 -11 3 -14 6 -6 3 7 2 16 -1 19 -3 4 -6 -2 -5 -13z"/>
<path d="M2750 2469 c0 -5 5 -7 10 -4 6 3 10 8 10 11 0 2 -4 4 -10 4 -5 0 -10
-5 -10 -11z"/>
<path d="M6060 2461 c0 -5 5 -13 10 -16 6 -3 10 -2 10 4 0 5 -4 13 -10 16 -5
3 -10 2 -10 -4z"/>
<path d="M2763 2423 c-3 -10 -8 -21 -10 -25 -7 -13 5 -9 21 8 9 8 16 20 16 25
0 16 -20 10 -27 -8z"/>
<path d="M1212 6943 c-98 -48 -255 -295 -296 -464 -31 -128 -11 -264 52 -358
74 -110 151 -108 292 10 79 66 142 151 196 264 92 196 103 293 49 427 -32 81
-60 113 -111 127 -57 16 -144 13 -182 -6z"/>
<path d="M1124 5536 c-64 -29 -113 -129 -134 -275 -21 -139 0 -216 70 -251 56
-29 84 -25 129 15 64 58 85 126 107 340 7 69 -7 134 -36 160 -25 23 -97 29
-136 11z"/>
<path d="M1650 4694 c-52 -35 -103 -91 -122 -134 -112 -252 -127 -464 -47
-650 21 -50 62 -80 108 -80 40 0 111 43 160 96 77 85 153 294 167 462 12 145
-34 255 -127 302 -47 24 -106 26 -139 4z"/>
<path d="M1590 3471 c-16 -4 -26 -16 -31 -36 -3 -17 -25 -81 -47 -142 -46
-123 -52 -180 -27 -241 23 -53 125 -139 125 -104 0 4 23 30 50 57 28 28 56 61
62 75 55 127 60 188 25 289 -30 88 -85 123 -157 102z"/>
<path d="M7920 6540 c0 -5 6 -10 14 -10 8 0 18 5 21 10 3 6 -3 10 -14 10 -12
0 -21 -4 -21 -10z"/>
<path d="M7884 6332 c-5 -4 -10 -16 -11 -27 0 -11 -3 -28 -8 -37 -5 -14 -2
-18 13 -18 13 0 19 -6 18 -17 -1 -18 36 -41 75 -45 23 -3 24 -1 27 75 l3 77
-53 0 c-29 0 -58 -4 -64 -8z"/>
<path d="M7688 6053 c7 -3 16 -2 19 1 4 3 -2 6 -13 5 -11 0 -14 -3 -6 -6z"/>
<path d="M7675 5850 c-18 -7 -18 -9 -3 -15 9 -4 24 -2 33 3 23 12 -2 22 -30
12z"/>
<path d="M7536 5764 c-4 -9 -4 -19 -1 -22 2 -3 7 3 11 12 4 9 4 19 1 22 -2 3
-7 -3 -11 -12z"/>
<path d="M7632 5603 c-34 -7 -48 -51 -24 -76 29 -29 85 -15 100 25 19 50 -3
65 -76 51z"/>
<path d="M20 5320 c-11 -7 -12 -12 -3 -21 13 -13 57 6 48 22 -8 12 -26 11 -45
-1z"/>
<path d="M226 4595 c-21 -32 -20 -48 4 -70 16 -15 26 -17 48 -9 35 12 42 54
13 83 -28 28 -45 26 -65 -4z"/>
<path d="M6813 432 c4 -17 2 -22 -7 -19 -23 9 -35 -36 -32 -123 2 -47 4 -131
4 -187 l2 -103 41 0 41 0 -6 83 c-3 45 -8 122 -11 172 -3 50 -8 107 -11 128
-4 23 -2 37 5 37 6 0 11 -11 11 -23 0 -13 9 -32 20 -42 19 -18 20 -17 20 3 0
12 -4 22 -10 22 -5 0 -10 13 -10 29 0 25 -3 28 -21 24 -12 -4 -25 0 -31 8 -7
10 -8 8 -5 -9z"/>
<path d="M6550 261 c0 -6 7 -14 15 -17 23 -9 18 -23 -7 -18 l-23 5 23 -17 c12
-9 22 -23 22 -31 0 -13 -2 -13 -16 -2 -15 12 -16 11 -10 -11 19 -64 21 -60
-28 -60 -36 0 -46 -4 -51 -20 -3 -11 -4 -24 -1 -28 3 -5 -4 -16 -15 -25 -35
-31 -13 -38 105 -36 l113 2 1 74 c0 42 -4 73 -9 73 -6 0 -7 5 -4 10 4 6 -4 19
-16 29 -19 15 -21 21 -11 34 11 12 7 16 -25 22 -21 4 -44 11 -50 17 -9 7 -13
7 -13 -1z m80 -101 c0 -5 -6 -10 -12 -10 -8 -1 -6 -6 5 -14 9 -7 17 -22 17
-32 0 -17 -3 -16 -20 6 -23 30 -26 60 -5 60 8 0 15 -4 15 -10z"/>
<path d="M6714 105 c0 -61 1 -84 3 -52 2 32 2 81 0 110 -2 29 -3 3 -3 -58z"/>
<path d="M2233 3 c9 -2 23 -2 30 0 6 3 -1 5 -18 5 -16 0 -22 -2 -12 -5z"/>
</g>
</svg>
